<svg width="1280" height="465" viewBox="0 0 1280 465" fill="none" xmlns="http://www.w3.org/2000/svg">
<rect width="1280" height="465" rx="30" fill="#1F2224"/>
<path fill-rule="evenodd" clip-rule="evenodd" d="M1214 0V157H1280V0H1279.34V156.346H1214.66V0H1214Z" fill="white"/>
<path fill-rule="evenodd" clip-rule="evenodd" d="M1083.66 78.3417L1148.34 78.3417V0.658333L1083.66 0.658333V78.3417ZM1149 79V0L1083 0V79L1149 79Z" fill="white"/>
<path fill-rule="evenodd" clip-rule="evenodd" d="M1149 79V118L1280 118V79H1279.35V117.35L1149.65 117.35V79H1149Z" fill="white"/>
<path fill-rule="evenodd" clip-rule="evenodd" d="M1083 39V79L1280 79V39H1279.34V78.3333L1083.66 78.3333V39H1083Z" fill="white"/>
<path fill-rule="evenodd" clip-rule="evenodd" d="M1018.65 38.35L1279.35 38.35V0.650002L1018.65 0.650002V38.35ZM1280 39V0L1018 0V39L1280 39Z" fill="white"/>
<path fill-rule="evenodd" clip-rule="evenodd" d="M66 465V308H0V465H0.66V308.654H65.34V465H66Z" fill="white"/>
<path fill-rule="evenodd" clip-rule="evenodd" d="M196.34 386.658H131.66V464.342H196.34V386.658ZM131 386V465H197V386H131Z" fill="white"/>
<path fill-rule="evenodd" clip-rule="evenodd" d="M131 386V347H0V386H0.655V347.65H130.345V386H131Z" fill="white"/>
<path fill-rule="evenodd" clip-rule="evenodd" d="M197 426V386H0V426H0.656667V386.667H196.343V426H197Z" fill="white"/>
<path fill-rule="evenodd" clip-rule="evenodd" d="M261.345 426.65H0.655V464.35H261.345V426.65ZM0 426V465H262V426H0Z" fill="white"/>
</svg>
