<svg width="30" height="30" viewBox="0 0 30 30" fill="none" xmlns="http://www.w3.org/2000/svg">
<path d="M28.6753 0.555664H0.54541V29.2064H28.6753V0.555664Z" stroke="#FF9B06" stroke-width="1.71429"/>
<path fill-rule="evenodd" clip-rule="evenodd" d="M12.2343 8.16861C14.4795 5.97961 18.1099 5.97961 20.3551 8.16861C20.5834 8.39116 20.5914 8.76011 20.3729 8.99266C20.1542 9.22516 19.7921 9.23327 19.5638 9.01066C17.7611 7.25316 14.8284 7.25316 13.0256 9.01066L8.13934 13.7745C7.91102 13.9971 7.54878 13.989 7.33027 13.7565C7.11171 13.524 7.11962 13.155 7.34794 12.9325L12.2343 8.16861ZM17.1029 10.5686C17.3214 10.336 17.6837 10.3279 17.912 10.5505C18.8702 11.4848 18.8702 13.0104 17.912 13.9447L11.8913 19.8144C11.663 20.037 11.3008 20.029 11.0822 19.7964C10.8637 19.5639 10.8716 19.195 11.1 18.9724L17.1206 13.1026C17.608 12.6274 17.608 11.8678 17.1206 11.3926C16.8923 11.1701 16.8844 10.8011 17.1029 10.5686Z" fill="#FF9B06"/>
<path d="M19.5633 9.01046C21.3519 10.7542 21.3519 13.5705 19.5633 15.3142L13.499 21.2265C12.3469 22.3497 10.469 22.3497 9.31686 21.2265C8.17882 20.117 8.17882 18.3291 9.31686 17.2196L15.2938 11.3924C15.7954 10.9034 16.6185 10.9034 17.1201 11.3924C16.8921 11.1698 16.8844 10.8009 17.1028 10.5684C17.3174 10.3401 17.6707 10.3282 17.8995 10.5387C16.9545 9.62985 15.4425 9.63374 14.5025 10.5504L8.52546 16.3775C6.91664 17.9461 6.91664 20.5001 8.52546 22.0686C10.1202 23.6233 12.6957 23.6233 14.2904 22.0686L20.3547 16.1563C22.6102 13.9573 22.614 10.3834 20.3662 8.17969C20.5836 8.4033 20.5876 8.76385 20.3727 8.99252C20.1542 9.22508 19.7916 9.23302 19.5633 9.01046Z" fill="#FFBB00"/>
</svg>
